{
  "accessors": [
    {
      "bufferView": 2,
      "componentType": 5126,
      "count": 39388,
      "max": [
        12.427766799926758,
        5.8963446617126465,
        17.43454360961914
      ],
      "min": [
        -12.730698585510254,
        -2.948007345199585,
        0.7730841040611267
      ],
      "type": "VEC3"
    },
    {
      "bufferView": 2,
      "byteOffset": 472656,
      "componentType": 5126,
      "count": 39388,
      "type": "VEC3"
    },
    {
      "bufferView": 1,
      "componentType": 5126,
      "count": 39388,
      "type": "VEC2"
    },
    {
      "bufferView": 0,
      "componentType": 5125,
      "count": 140619,
      "type": "SCALAR"
    },
    {
      "bufferView": 2,
      "byteOffset": 945312,
      "componentType": 5126,
      "count": 4464,
      "max": [
        53.99767303466797,
        47.995330810546875,
        2.5199999809265137
      ],
      "min": [
        -53.99752426147461,
        -74.63919067382813,
        -2.5199999809265137
      ],
      "type": "VEC3"
    },
    {
      "bufferView": 2,
      "byteOffset": 998880,
      "componentType": 5126,
      "count": 4464,
      "type": "VEC3"
    },
    {
      "bufferView": 0,
      "byteOffset": 562476,
      "componentType": 5125,
      "count": 20256,
      "type": "SCALAR"
    },
    {
      "bufferView": 2,
      "byteOffset": 1052448,
      "componentType": 5126,
      "count": 216,
      "max": [
        44.99372100830078,
        3.792222261428833,
        4.872425079345703
      ],
      "min": [
        -47.205299377441406,
        -3.792222023010254,
        0.0
      ],
      "type": "VEC3"
    },
    {
      "bufferView": 2,
      "byteOffset": 1055040,
      "componentType": 5126,
      "count": 216,
      "type": "VEC3"
    },
    {
      "bufferView": 1,
      "byteOffset": 315104,
      "componentType": 5126,
      "count": 216,
      "type": "VEC2"
    },
    {
      "bufferView": 0,
      "byteOffset": 643500,
      "componentType": 5125,
      "count": 900,
      "type": "SCALAR"
    },
    {
      "bufferView": 2,
      "byteOffset": 1057632,
      "componentType": 5126,
      "count": 1864,
      "max": [
        40.62249755859375,
        5.822876930236816,
        3.136951208114624
      ],
      "min": [
        -45.966896057128906,
        -21.400428771972656,
        0.0
      ],
      "type": "VEC3"
    },
    {
      "bufferView": 2,
      "byteOffset": 1080000,
      "componentType": 5126,
      "count": 1864,
      "type": "VEC3"
    },
    {
      "bufferView": 1,
      "byteOffset": 316832,
      "componentType": 5126,
      "count": 1864,
      "type": "VEC2"
    },
    {
      "bufferView": 0,
      "byteOffset": 647100,
      "componentType": 5125,
      "count": 7596,
      "type": "SCALAR"
    }
  ],
  "asset": {
    "generator": "fab-model-conversion",
    "version": "2.0"
  },
  "bufferViews": [
    {
      "buffer": 0,
      "byteLength": 677484,
      "target": 34963
    },
    {
      "buffer": 0,
      "byteLength": 331744,
      "byteOffset": 677484,
      "byteStride": 8,
      "target": 34962
    },
    {
      "buffer": 0,
      "byteLength": 1102368,
      "byteOffset": 1009228,
      "byteStride": 12,
      "target": 34962
    }
  ],
  "buffers": [
    {
      "byteLength": 2111596,
      "uri": "scene.bin"
    }
  ],
  "extensionsUsed": [
    "KHR_materials_unlit"
  ],
  "images": [
    {
      "uri": "textures/VZV2_u1_v1_baseColor.jpeg"
    }
  ],
  "materials": [
    {
      "doubleSided": true,
      "extensions": {
        "KHR_materials_unlit": {}
      },
      "name": "VZV2_u1_v1",
      "pbrMetallicRoughness": {
        "baseColorTexture": {
          "index": 0
        },
        "metallicFactor": 0.0
      }
    },
    {
      "doubleSided": true,
      "extensions": {
        "KHR_materials_unlit": {}
      },
      "name": "black",
      "pbrMetallicRoughness": {
        "baseColorFactor": [
          0.08056809782365604,
          0.10298129339034122,
          0.1706051905312313,
          1.0
        ],
        "metallicFactor": 0.0
      }
    }
  ],
  "meshes": [
    {
      "name": "VZV2_VZV2_u1_v1_0",
      "primitives": [
        {
          "attributes": {
            "NORMAL": 1,
            "POSITION": 0,
            "TEXCOORD_0": 2
          },
          "indices": 3,
          "material": 0,
          "mode": 4
        }
      ]
    },
    {
      "name": "Shape001_black_0",
      "primitives": [
        {
          "attributes": {
            "NORMAL": 5,
            "POSITION": 4
          },
          "indices": 6,
          "material": 1,
          "mode": 4
        }
      ]
    },
    {
      "name": "Box001_black_0",
      "primitives": [
        {
          "attributes": {
            "NORMAL": 8,
            "POSITION": 7,
            "TEXCOORD_0": 9
          },
          "indices": 10,
          "material": 1,
          "mode": 4
        }
      ]
    },
    {
      "name": "Box002_black_0",
      "primitives": [
        {
          "attributes": {
            "NORMAL": 12,
            "POSITION": 11,
            "TEXCOORD_0": 13
          },
          "indices": 14,
          "material": 1,
          "mode": 4
        }
      ]
    }
  ],
  "nodes": [
    {
      "children": [
        1
      ],
      "matrix": [
        1.0,
        0.0,
        0.0,
        0.0,
        0.0,
        2.220446049250313e-16,
        -1.0,
        0.0,
        0.0,
        1.0,
        2.220446049250313e-16,
        0.0,
        0.0,
        0.0,
        0.0,
        1.0
      ],
      "name": "Sketchfab_model"
    },
    {
      "children": [
        2
      ],
      "matrix": [
        0.009999999776482582,
        0.0,
        0.0,
        0.0,
        0.0,
        0.0,
        0.009999999776482582,
        0.0,
        0.0,
        -0.009999999776482582,
        0.0,
        0.0,
        0.0,
        0.0,
        0.0,
        1.0
      ],
      "name": "f981c050ec6c4f72bbfe4229ec9ec9a1.fbx"
    },
    {
      "children": [
        3,
        6,
        8,
        10
      ],
      "name": "RootNode"
    },
    {
      "children": [
        4
      ],
      "matrix": [
        7.15503165396981e-06,
        2.43789814741445e-15,
        -14.639089584348838,
        0.0,
        -14.639089584348838,
        3.2505308632192666e-15,
        -7.155031654782443e-06,
        0.0,
        4.063163579024083e-15,
        14.639089584350586,
        1.6252654316096333e-15,
        0.0,
        7.62939453125e-06,
        0.0,
        3.206903056707233e-05,
        1.0
      ],
      "name": "VZV2"
    },
    {
      "children": [
        5
      ],
      "matrix": [
        1.0,
        0.0,
        -0.0,
        0.0,
        0.0,
        1.0,
        0.0,
        0.0,
        0.0,
        0.0,
        1.0,
        0.0,
        0.15146495401859283,
        -1.4741686582565308,
        -0.8419142961502075,
        1.0
      ],
      "name": "Object_4"
    },
    {
      "mesh": 0,
      "name": "VZV2_VZV2_u1_v1_0"
    },
    {
      "children": [
        7
      ],
      "matrix": [
        1.0,
        0.0,
        0.0,
        0.0,
        0.0,
        2.220446049250313e-16,
        -1.0,
        0.0,
        0.0,
        1.0,
        2.220446049250313e-16,
        0.0,
        3.518767833709717,
        232.6001739501953,
        -101.10595703125,
        1.0
      ],
      "name": "Shape001"
    },
    {
      "mesh": 1,
      "name": "Shape001_black_0"
    },
    {
      "children": [
        9
      ],
      "matrix": [
        1.0,
        0.0,
        0.0,
        0.0,
        0.0,
        2.220446049250313e-16,
        -1.0,
        0.0,
        0.0,
        1.0,
        2.220446049250313e-16,
        0.0,
        3.8636322021484375,
        230.11561584472656,
        -29.75316047668457,
        1.0
      ],
      "name": "Box001"
    },
    {
      "mesh": 2,
      "name": "Box001_black_0"
    },
    {
      "children": [
        11
      ],
      "matrix": [
        1.0,
        0.0,
        0.0,
        0.0,
        0.0,
        2.220446049250313e-16,
        -1.0,
        0.0,
        0.0,
        1.0,
        2.220446049250313e-16,
        0.0,
        -21.320735931396484,
        244.23179626464844,
        21.51279067993164,
        1.0
      ],
      "name": "Box002"
    },
    {
      "children": [
        12
      ],
      "matrix": [
        1.0,
        0.0,
        -0.0,
        0.0,
        0.0,
        1.0,
        0.0,
        0.0,
        0.0,
        0.0,
        1.0,
        0.0,
        25.184368133544922,
        7.7887773513793945,
        -1.5684661865234375,
        1.0
      ],
      "name": "Object_11"
    },
    {
      "mesh": 3,
      "name": "Box002_black_0"
    }
  ],
  "samplers": [
    {
      "magFilter": 9729,
      "minFilter": 9987,
      "wrapS": 10497,
      "wrapT": 10497
    }
  ],
  "scene": 0,
  "scenes": [
    {
      "name": "Sketchfab_Scene",
      "nodes": [
        0
      ]
    }
  ],
  "textures": [
    {
      "sampler": 0,
      "source": 0
    }
  ]
}
